:FULLY-SPECIFIED
:FORCE-ALL-JOINTS-BE-3DOF
:DEGREES
306
root 9.08424 15.4179 -23.8076 12.7553 59.5573 16.5982
lfemur -16.3893 19.0361 -18.131
ltibia 52.7657 0 0
lfoot -17.3 -26.4732 0
ltoes 58.0564 0 0
rfemur -53.5529 -19.5326 36.73
rtibia 57.062 0 0
rfoot 15.1749 14.7482 0
rtoes 5.95829 0 0
lowerback 9.44247 -3.31983 -8.67655
upperback 5.04644 -4.9456 -4.04298
thorax 0.383934 -2.50839 1.06218
lowerneck -5.50899 -10.4388 -2.76474
upperneck -2.08237 -13.835 10.6136
head 1.31466 -6.78785 3.40264
lclavicle 9.86374e-14 2.18756e-14 0
lhumerus -42.006 -41.5439 98.8371
lradius 59.3362 0 0
lwrist 21.307 0 0
lhand 14.1375 11.743 0
lfingers 7.12502 0 0
lthumb 39.041 37.2664 0
rclavicle 9.86374e-14 2.18756e-14 0
rhumerus -38.3214 68.6338 -73.0123
rradius 80.4656 0 0
rwrist 5.7095 0 0
rhand 4.11774 -4.7329 0
rfingers 7.12502 0 0
rthumb 29.4896 -752.054 0
307
root 9.04018 15.4397 -23.7906 12.4064 58.0704 15.8215
lfemur -16.5612 19.3436 -18.0822
ltibia 52.3198 0 0
lfoot -18.0079 -25.4755 0
ltoes 57.8977 0 0
rfemur -55.2418 -20.7051 37.518
rtibia 57.8946 0 0
rfoot 14.8856 17.3642 0
rtoes -2.26405 0 0
lowerback 9.63167 -3.21469 -8.567
upperback 5.05479 -4.82258 -4.05182
thorax 0.26679 -2.44203 0.997453
lowerneck -5.59529 -10.3213 -2.53199
upperneck -2.54402 -13.6508 10.734
head 1.15866 -6.70742 3.42103
lclavicle 8.11292e-14 1.28671e-14 0
lhumerus -42.3788 -42.3267 99.2147
lradius 59.0711 0 0
lwrist 20.8798 0 0
lhand 14.1549 11.5547 0
lfingers 7.12502 0 0
lthumb 39.0566 37.067 0
rclavicle 8.11292e-14 1.28671e-14 0
rhumerus -29.9535 69.32 -64.8838
rradius 80.4255 0 0
rwrist 3.95324 0 0
rhand 7.54113 -3.85735 0
rfingers 7.12502 0 0
rthumb 32.7617 -750.639 0
308
root 8.99819 15.4616 -23.7695 12.1038 56.6567 15.1067
lfemur -16.6918 19.6292 -18.0192
ltibia 51.8491 0 0
lfoot -18.6601 -24.4992 0
ltoes 57.7454 0 0
rfemur -56.7424 -21.6446 37.9753
rtibia 58.6364 0 0
rfoot 14.4374 19.3126 0
rtoes -9.24209 0 0
lowerback 9.79011 -3.09379 -8.4272
upperback 5.05492 -4.67342 -4.06092
thorax 0.155458 -2.36255 0.911261
lowerneck -5.64779 -10.2424 -2.27344
upperneck -2.98927 -13.5199 10.8238
head 1.00142 -6.65529 3.42486
lclavicle 6.43694e-14 5.16724e-15 0
lhumerus -42.8084 -43.1595 99.6818
lradius 58.8525 0 0
lwrist 20.4804 0 0
lhand 14.1903 11.3692 0
lfingers 7.12502 0 0
lthumb 39.0892 36.8662 0
rclavicle 6.43694e-14 5.16724e-15 0
rhumerus -22.6171 68.927 -58.0619
rradius 80.1956 0 0
rwrist 2.03078 0 0
rhand 10.1044 -3.4279 0
rfingers 7.12502 0 0
rthumb 35.2121 -749.81 0
309
root 8.95906 15.4833 -23.7423 11.7781 55.3449 14.3951
lfemur -16.7654 19.9095 -17.9263
ltibia 51.3578 0 0
lfoot -19.2093 -23.5771 0
ltoes 57.616 0 0
rfemur -57.9538 -22.2722 37.9888
rtibia 59.2337 0 0
rfoot 13.8786 20.3628 0
rtoes -14.2127 0 0
lowerback 9.90836 -2.94871 -8.25837
upperback 5.04675 -4.48549 -4.0701
thorax 0.0553108 -2.26391 0.802785
lowerneck -5.66427 -10.2142 -1.97222
upperneck -3.41346 -13.4593 10.8753
head 0.842986 -6.6399 3.40836
lclavicle 5.08889e-14 0 0
lhumerus -43.3004 -44.0231 100.237
lradius 58.7077 0 0
lwrist 20.1567 0 0
lhand 14.2114 11.1762 0
lfingers 7.12502 0 0
lthumb 39.1088 36.665 0
rclavicle 5.08889e-14 0 0
rhumerus -17.0391 67.2029 -53.3766
rradius 79.73 0 0
rwrist -0.0758576 0 0
rhand 11.4369 -3.63621 0
rfingers 7.12502 0 0
rthumb 36.4879 -749.831 0
310
root 8.92235 15.5057 -23.7103 11.4861 54.1221 13.7288
lfemur -16.8021 20.1927 -17.8214
ltibia 50.8396 0 0
lfoot -19.6762 -22.6667 0
ltoes 57.4785 0 0
rfemur -58.9404 -22.5772 37.5693
rtibia 59.7182 0 0
rfoot 13.0221 20.3577 0
rtoes -17.2828 0 0
lowerback 9.98568 -2.7731 -8.04171
upperback 5.02676 -4.24911 -4.09489
thorax -0.0398546 -2.14063 0.644417
lowerneck -5.63611 -10.2434 -1.61425
upperneck -3.82343 -13.4774 10.8955
head 0.680308 -6.66675 3.37086
lclavicle 3.87345e-14 -2.65577e-15 0
lhumerus -43.8856 -44.9758 100.902
lradius 58.6389 0 0
lwrist 19.8904 0 0
lhand 14.2454 10.9518 0
lfingers 7.12502 0 0
lthumb 39.1408 36.4312 0
rclavicle 3.87345e-14 -2.65577e-15 0
rhumerus -13.2176 63.6548 -50.9526
rradius 78.8435 0 0
rwrist -2.54762 0 0
rhand 11.6897 -4.47726 0
rfingers 7.12502 0 0
rthumb 36.7367 -750.749 0
311
root 8.88724 15.5294 -23.6756 11.3083 52.9584 13.1739
lfemur -16.8228 20.4665 -17.7242
ltibia 50.2884 0 0
lfoot -20.1098 -21.7249 0
ltoes 57.3079 0 0
rfemur -59.8132 -22.6263 36.821
rtibia 60.1483 0 0
rfoot 11.7625 19.4501 0
rtoes -19.1664 0 0
lowerback 10.0302 -2.57233 -7.76986
upperback 4.99387 -3.9723 -4.14061
thorax -0.136881 -1.99624 0.427687
lowerneck -5.5624 -10.3212 -1.20982
upperneck -4.22562 -13.5617 10.8937
head 0.512332 -6.73016 3.31725
lclavicle 2.50051e-14 -3.89514e-15 0
lhumerus -44.5693 -46.0542 101.685
lradius 58.6225 0 0
lwrist 19.633 0 0
lhand 14.3301 10.6971 0
lfingers 7.12502 0 0
lthumb 39.2206 36.1531 0
rclavicle 2.50051e-14 -3.89514e-15 0
rhumerus -10.5056 58.3422 -50.0938
rradius 77.5152 0 0
rwrist -5.42886 0 0
rhand 11.2423 -5.77899 0
rfingers 7.12502 0 0
rthumb 36.3214 -752.345 0
312
root 8.85388 15.5538 -23.6377 11.211 51.8572 12.708
lfemur -16.8126 20.7173 -17.622
ltibia 49.7092 0 0
lfoot -20.5051 -20.783 0
ltoes 57.1298 0 0
rfemur -60.5414 -22.4565 35.7707
rtibia 60.5101 0 0
rfoot 10.2707 17.8738 0
rtoes -20.0109 0 0
lowerback 10.0459 -2.35558 -7.46122
upperback 4.95159 -3.66894 -4.19178
thorax -0.231358 -1.83821 0.180476
lowerneck -5.45249 -10.4372 -0.778616
upperneck -4.61473 -13.6982 10.8654
head 0.342098 -6.82183 3.25013
lclavicle 1.08106e-14 -4.10493e-15 0
lhumerus -45.3189 -47.2064 102.565
lradius 58.6474 0 0
lwrist 19.3867 0 0
lhand 14.449 10.4395 0
lfingers 7.12502 0 0
lthumb 39.3327 35.8627 0
rclavicle 1.08106e-14 -4.10493e-15 0
rhumerus -8.66284 51.8422 -50.3989
rradius 75.9456 0 0
rwrist -8.53264 0 0
rhand 10.0673 -7.48254 0
rfingers 7.12502 0 0
rthumb 35.2121 -754.483 0
313
root 8.82243 15.5778 -23.5959 11.1606 50.8219 12.3086
lfemur -16.7566 20.9314 -17.5023
ltibia 49.1069 0 0
lfoot -20.8573 -19.8727 0
ltoes 56.9697 0 0
rfemur -61.0944 -22.1048 34.4453
rtibia 60.7899 0 0
rfoot 8.71806 15.8628 0
rtoes -19.9638 0 0
lowerback 10.0365 -2.132 -7.13418
upperback 4.90348 -3.35291 -4.23296
thorax -0.318874 -1.67407 -0.0693366
lowerneck -5.31574 -10.5805 -0.340357
upperneck -4.98547 -13.8728 10.8061
head 0.172646 -6.93346 3.17211
lclavicle -2.73953e-15 -3.67201e-15 0
lhumerus -46.1015 -48.3806 103.52
lradius 58.7022 0 0
lwrist 19.1539 0 0
lhand 14.5857 10.2064 0
lfingers 7.12502 0 0
lthumb 39.4615 35.5919 0
rclavicle -2.73953e-15 -3.67201e-15 0
rhumerus -7.44891 44.7316 -51.4662
rradius 74.3352 0 0
rwrist -11.672 0 0
rhand 8.13748 -9.52905 0
rfingers 7.12502 0 0
rthumb 33.3788 -757.029 0
314
root 8.79306 15.6008 -23.5495 11.1235 49.8561 11.9529
lfemur -16.6399 21.0952 -17.3524
ltibia 48.4865 0 0
lfoot -21.1616 -19.0254 0
ltoes 56.8529 0 0
rfemur -61.4414 -21.608 32.8717
rtibia 60.9739 0 0
rfoot 7.27549 13.651 0
rtoes -19.1725 0 0
lowerback 10.0059 -1.91075 -6.80712
upperback 4.85307 -3.03811 -4.24868
thorax -0.395016 -1.51129 -0.293868
lowerneck -5.16154 -10.7406 0.0852532
upperneck -5.33255 -14.0714 10.7113
head 0.00701603 -7.05673 3.08578
lclavicle -1.45355e-14 -2.98322e-15 0
lhumerus -46.8846 -49.5249 104.531
lradius 58.7757 0 0
lwrist 18.9369 0 0
lhand 14.7238 10.0252 0
lfingers 7.12502 0 0
lthumb 39.5915 35.3726 0
rclavicle -1.45355e-14 -2.98322e-15 0
rhumerus -6.62354 37.5875 -52.8946
rradius 72.8846 0 0
rwrist -14.66 0 0
rhand 5.42534 -11.8597 0
rfingers 7.12502 0 0
rthumb 30.7918 -759.847 0
